# xmcd CD database file
#
# Track frame offsets:
#	150
#	27767
#	46775
#
# Disc length: 990 seconds
#
# Revision: 0
# Processed by: cddbd v1.5PL3 Copyright (c) Steve Scherf et al.
# Submitted via: CDex 1.50
#
DISCID=1703dc03
DTITLE=THE CHECKERS - ふれてごらん〜please touch your heart〜
DYEAR=1991
DGENRE=JPop
TTITLE0=ふれてごらん〜please touch your heart〜
TTITLE1=トライアングルブルース
TTITLE2=ふれてごらん〜please touch your heart〜 (オリジナル カラオケ)
EXTD=YEAR: 1991
EXTT0=
EXTT1=
EXTT2=
PLAYORDER=
